<svg width="1024" height="1024" viewBox="0 0 1024 1024" xmlns="http://www.w3.org/2000/svg">
  <defs>
    <linearGradient id="bg" x1="0" y1="0" x2="1" y2="1">
      <stop offset="0%" stop-color="#a5d8ff"/>
      <stop offset="100%" stop-color="#3b82f6"/>
    </linearGradient>
    <linearGradient id="disk" x1="0" y1="0" x2="1" y2="1">
      <stop offset="0%" stop-color="#ffffff" stop-opacity="0.95"/>
      <stop offset="100%" stop-color="#dbeafe" stop-opacity="0.95"/>
    </linearGradient>
  </defs>

  <rect x="56" y="56" width="912" height="912" rx="210" fill="url(#bg)"/>

  <circle cx="470" cy="470" r="220" fill="url(#disk)"/>
  <circle cx="470" cy="470" r="124" fill="#93c5fd" fill-opacity="0.5"/>
  <circle cx="470" cy="470" r="56" fill="#60a5fa" fill-opacity="0.65"/>

  <g transform="translate(590 590)">
    <circle cx="0" cy="0" r="132" fill="#ffffff" fill-opacity="0.9"/>
    <circle cx="0" cy="0" r="88" fill="#e0f2fe"/>
    <rect x="98" y="96" width="170" height="48" rx="24" transform="rotate(45)" fill="#0ea5e9"/>
  </g>

  <g fill="#ffffff" fill-opacity="0.7">
    <path d="M196 300l24 48 48 24-48 24-24 48-24-48-48-24 48-24z"/>
    <path d="M760 212l16 32 32 16-32 16-16 32-16-32-32-16 32-16z"/>
  </g>
</svg>
